<svg width="146" height="133" viewBox="0 0 146 133" fill="none" xmlns="http://www.w3.org/2000/svg">
<path d="M94.6037 108.885C88.1469 104.34 85.6346 96.0734 85.7402 88.4008C85.7931 84.5337 86.5268 80.3976 89.3561 77.6289C90.77 76.3401 92.4326 75.3256 94.2515 74.6417C100.004 72.2542 107.658 71.8675 111.65 76.4856C112.752 77.8876 113.621 79.4433 114.227 81.0981C116.625 86.7624 118.778 92.5164 120.683 98.36C122.562 104.093 124.598 113.156 116.105 113.666C109.19 114.086 100.297 112.876 94.6037 108.885Z" fill="white"/>
<path d="M113.511 114.036C107.265 114.036 99.6228 112.764 94.428 109.115C88.5934 105.024 85.318 97.4744 85.4354 88.3783C85.5059 83.3679 86.7151 79.781 89.1393 77.4103C90.5852 76.0974 92.2807 75.0606 94.1345 74.3558C100.004 71.9179 107.799 71.5536 111.885 76.2838C113.007 77.7071 113.892 79.2876 114.509 80.9691C116.904 86.6241 119.081 92.4416 120.965 98.2591C123.049 104.626 123.184 108.947 121.37 111.463C120.29 112.96 118.524 113.795 116.117 113.94C115.295 114.008 114.421 114.036 113.511 114.036ZM102.611 73.1901C99.7788 73.232 96.9846 73.8151 94.3928 74.9051C92.6074 75.5873 90.9755 76.5899 89.5854 77.8586C87.2727 80.1004 86.1222 83.5752 86.0635 88.4343C85.9461 97.3175 89.1334 104.687 94.8095 108.678C100.632 112.764 109.631 113.8 116.123 113.408C118.33 113.274 119.944 112.523 120.913 111.166C122.615 108.807 122.456 104.648 120.431 98.4664C118.529 92.6658 116.358 86.8595 113.974 81.2213C113.381 79.5955 112.53 78.0663 111.45 76.6873C109.273 74.1933 106.021 73.1901 102.611 73.1901Z" fill="#231F20"/>
<path d="M26.7784 79.9048L8.07129 72.5348C14.7218 58.9607 22.2234 50.9014 27.4417 47.7461C34.0453 42.5003 50.4221 42.1416 65.4429 41.5811C70.249 41.3128 75.0695 41.7629 79.7301 42.915C97.2515 47.5387 113.54 71.7614 113.54 71.7614L92.2739 74.4964C92.2739 74.4964 95.0151 98.9993 97.4217 128.86C97.4217 128.86 69.9216 134.767 26.9839 132.469C26.9545 132.492 27.2128 84.153 26.7784 79.9048Z" fill="#F6F2D4"/>
<path d="M67.3913 39.1542L69.7392 49.9149C69.7392 49.9149 67.2386 57.0606 59.6607 56.3096C57.4219 56.0662 55.268 55.35 53.3552 54.2129C51.4423 53.0758 49.8187 51.5463 48.6019 49.7355L45.9136 29.9516C45.9136 29.9516 50.9675 26.4824 47.7802 15.3799C54.13 17.0772 60.8415 17.1101 67.2093 15.4752C67.2093 15.4752 72.2573 27.2839 72.1341 32.8491C72.0108 38.4144 67.3913 39.1542 67.3913 39.1542Z" fill="white"/>
<path d="M60.7528 56.6513C60.3764 56.6517 60.0002 56.6329 59.6258 56.5953C51.995 55.8331 48.3733 49.9371 48.3323 49.8699C48.3153 49.8362 48.3034 49.8003 48.297 49.7634L45.6028 29.9795C45.5967 29.9274 45.6049 29.8747 45.6265 29.8266C45.6481 29.7785 45.6824 29.7365 45.7261 29.7048C46.6856 28.8924 47.3923 27.8434 47.7688 26.6728C48.5318 24.6608 49.0953 21.0683 47.4811 15.4638C47.4675 15.413 47.4685 15.3596 47.484 15.3093C47.4995 15.259 47.5289 15.2136 47.5692 15.1779C47.6088 15.1413 47.6585 15.1161 47.7125 15.1052C47.7665 15.0943 47.8226 15.0981 47.8744 15.1163C54.1684 16.7761 60.8119 16.8051 67.1216 15.2004C67.1924 15.1801 67.2687 15.1862 67.3351 15.2174C67.4015 15.2486 67.4531 15.3025 67.4796 15.3685C67.6909 15.8561 72.5511 27.3005 72.4279 32.8378C72.3222 37.7081 68.8121 39.0532 67.732 39.3502L70.0212 49.8362C70.0361 49.8857 70.0361 49.9381 70.0212 49.9876C69.9978 50.0772 67.6146 56.6513 60.7528 56.6513ZM48.8899 49.6401C50.0934 51.39 51.6843 52.8665 53.5504 53.9656C55.4165 55.0647 57.5124 55.7595 59.6904 56.0012C66.6168 56.685 69.129 50.6545 69.4225 49.8755L67.0746 39.1933C67.067 39.1553 67.0673 39.1164 67.0756 39.0786C67.0839 39.0408 67.1 39.0049 67.123 38.9731C67.1459 38.9413 67.1752 38.9141 67.2093 38.8933C67.2433 38.8724 67.2813 38.8581 67.3211 38.8514C67.4972 38.8234 71.6942 38.05 71.8057 32.8266C71.9172 27.8329 67.6968 17.5094 67.0042 15.8225C60.8329 17.3318 54.3627 17.3318 48.1914 15.8225C50.8563 25.664 47.0174 29.3966 46.2074 30.0691L48.8899 49.6401Z" fill="#231F20"/>
<path d="M50.1574 29.0547C49.7758 28.1225 49.0852 27.3352 48.191 26.8129C47.3364 26.3625 46.4072 26.0554 45.4439 25.905C44.9278 25.7678 44.3858 25.7448 43.859 25.8377C43.4968 25.9392 43.1596 26.1088 42.867 26.3365C42.1262 26.8061 41.5867 27.5142 41.3468 28.3317C41.2371 29.0085 41.2995 29.7005 41.5287 30.3494C41.7231 31.0682 42.0151 31.7597 42.3975 32.4062C42.7951 33.0424 43.3208 33.5971 43.9443 34.0381C44.5679 34.479 45.2768 34.7976 46.0301 34.9753C46.7833 35.1531 47.5661 35.1864 48.3329 35.0735C49.0998 34.9605 49.8356 34.7035 50.4978 34.3174" fill="white"/>
<path d="M47.422 35.4328C46.3557 35.4333 45.3076 35.1684 44.3812 34.6642C43.4548 34.16 42.6821 33.434 42.1392 32.5577C41.7413 31.89 41.4411 31.1734 41.247 30.4279C40.9997 29.7364 40.9332 28.9975 41.0533 28.2758C41.3089 27.3886 41.8901 26.6187 42.691 26.1069C43.0159 25.8547 43.3885 25.6644 43.7886 25.5464C44.3597 25.4422 44.9482 25.4653 45.5085 25.6137C46.5079 25.7657 47.4716 26.0844 48.3553 26.5552C49.3032 27.1102 50.0365 27.9441 50.445 28.9315C50.461 28.9667 50.4693 29.0047 50.4693 29.043C50.4693 29.0814 50.4611 29.1193 50.4452 29.1545C50.4292 29.1897 50.4059 29.2214 50.3765 29.2477C50.3472 29.2739 50.3126 29.2941 50.2748 29.307C50.2 29.3347 50.1168 29.3332 50.0432 29.3027C49.9696 29.2723 49.9115 29.2155 49.8815 29.1445C49.5246 28.2717 48.8769 27.5351 48.0384 27.0484C47.2127 26.6158 46.3152 26.322 45.3852 26.1797C44.9159 26.0509 44.4221 26.026 43.9412 26.1069C43.6159 26.1989 43.3127 26.3513 43.049 26.5552C42.3741 26.991 41.8784 27.6367 41.6461 28.3823C41.5486 29.013 41.611 29.6569 41.8281 30.2598C42.0113 30.9557 42.2917 31.6248 42.6616 32.2494C43.0381 32.8536 43.5365 33.3803 44.128 33.799C44.7195 34.2177 45.3921 34.52 46.107 34.6884C46.8218 34.8569 47.5646 34.888 48.2922 34.7801C49.0197 34.6721 49.7176 34.4272 50.3452 34.0597C50.379 34.0393 50.4167 34.0256 50.4561 34.0194C50.4955 34.0132 50.5358 34.0146 50.5746 34.0234C50.6134 34.0323 50.65 34.0485 50.6822 34.0711C50.7144 34.0937 50.7415 34.1222 50.762 34.1549C50.7831 34.1867 50.7974 34.2223 50.8038 34.2595C50.8103 34.2967 50.8088 34.3347 50.7994 34.3714C50.7901 34.408 50.7732 34.4424 50.7496 34.4727C50.726 34.5029 50.6963 34.5283 50.6622 34.5473C49.6886 35.1228 48.5671 35.4293 47.422 35.4328Z" fill="#231F20"/>
<path d="M68.2897 44.5343C66.9557 44.8539 65.5655 44.8967 64.2127 44.6599C62.8599 44.423 61.576 43.9119 60.4476 43.1612C56.7966 40.5999 56.8318 38.8345 56.8318 38.8345C56.8318 38.8345 62.4316 40.8969 67.1157 39.3613L68.2897 44.5343Z" fill="#231F20"/>
<path d="M65.8943 45.0949C63.8781 45.1156 61.9086 44.5163 60.2768 43.3855C56.5436 40.7682 56.5378 38.9019 56.5436 38.8291C56.5434 38.7843 56.5552 38.7402 56.5778 38.701C56.6004 38.6618 56.6331 38.6287 56.6728 38.6049C56.7134 38.5843 56.7588 38.5735 56.8048 38.5735C56.8509 38.5735 56.8962 38.5843 56.9369 38.6049C56.9956 38.6049 62.4956 40.6113 67.0154 39.1261C67.0528 39.1083 67.094 39.0991 67.1357 39.0991C67.1775 39.0991 67.2187 39.1083 67.2561 39.1261C67.2919 39.1443 67.3231 39.1697 67.3475 39.2007C67.3718 39.2317 67.3887 39.2675 67.3969 39.3054L68.5709 44.484C68.5873 44.5523 68.5758 44.6239 68.5387 44.6844C68.5016 44.7448 68.4417 44.7894 68.3713 44.8091C67.5621 45.0067 66.7294 45.1028 65.8943 45.0949ZM57.2245 39.2606C57.4534 39.9051 58.193 41.2334 60.6232 42.9372C61.6781 43.636 62.8723 44.12 64.1316 44.3591C65.3908 44.5982 66.6882 44.5873 67.9428 44.3271L66.898 39.7482C63.0063 40.8691 58.6802 39.7482 57.2245 39.2606Z" fill="#231F20"/>
<path d="M60.6296 23.0468C60.6296 23.0468 65.4253 27.8778 64.6857 28.9707C63.9461 30.0636 61.2871 29.8562 61.2871 29.8562" fill="white"/>
<path d="M61.8088 30.1532C61.627 30.1631 61.4447 30.1631 61.2629 30.1532C61.2244 30.1499 61.1869 30.1394 61.1526 30.1223C61.1183 30.1051 61.0879 30.0817 61.0631 30.0533C61.013 29.9961 60.9888 29.9221 60.9958 29.8478C61.0028 29.7735 61.0405 29.7049 61.1005 29.657C61.1605 29.6092 61.2379 29.5861 61.3157 29.5928C62.0025 29.6432 63.9102 29.5928 64.4385 28.8362C64.82 28.2757 62.6423 25.4735 60.4118 23.2317C60.3844 23.2061 60.3627 23.1756 60.3479 23.1419C60.3331 23.1082 60.3254 23.0721 60.3254 23.0355C60.3254 22.999 60.3331 22.9628 60.3479 22.9291C60.3627 22.8955 60.3844 22.8649 60.4118 22.8394C60.4391 22.8131 60.4715 22.7922 60.5073 22.778C60.543 22.7638 60.5814 22.7565 60.6201 22.7565C60.6589 22.7565 60.6973 22.7638 60.733 22.778C60.7688 22.7922 60.8012 22.8131 60.8285 22.8394C62.0025 24.0051 65.724 27.917 64.9374 29.1052C64.3445 30.0243 62.6775 30.1532 61.8088 30.1532Z" fill="#231F20"/>
<path d="M54.6231 25.1475C55.1134 24.9591 55.2851 24.271 55.0068 23.6106C54.7284 22.9501 54.1054 22.5674 53.6152 22.7558C53.1249 22.9441 52.9532 23.6322 53.2315 24.2926C53.5099 24.9531 54.1329 25.3358 54.6231 25.1475Z" fill="#231F20"/>
<path d="M64.5833 23.598C65.0736 23.4097 65.2453 22.7216 64.967 22.0611C64.6886 21.4007 64.0656 21.018 63.5754 21.2063C63.0851 21.3947 62.9134 22.0828 63.1917 22.7432C63.4701 23.4037 64.0931 23.7864 64.5833 23.598Z" fill="#231F20"/>
<path d="M61.3277 36.2341C59.5668 36.2341 57.9467 35.2365 56.5555 33.3029C55.7628 32.1753 55.1348 30.9497 54.6889 29.66C54.6667 29.5886 54.6745 29.5118 54.7107 29.4459C54.7469 29.38 54.8086 29.3301 54.8826 29.3069C54.9574 29.2857 55.0378 29.2931 55.1069 29.3277C55.1759 29.3622 55.2282 29.4211 55.2524 29.4919C55.2524 29.5647 57.6356 36.6096 62.2962 35.5391C66.9569 34.4687 66.8923 29.3069 66.8864 29.0883C66.8864 29.014 66.9173 28.9427 66.9724 28.8902C67.0274 28.8376 67.1021 28.8081 67.1799 28.8081C67.2578 28.8081 67.3324 28.8376 67.3874 28.8902C67.4425 28.9427 67.4734 29.014 67.4734 29.0883C67.4734 29.15 67.5908 34.9114 62.4371 36.0996C62.0741 36.1858 61.7017 36.231 61.3277 36.2341Z" fill="#231F20"/>
<path d="M142.942 22.0322H82.9405C81.2515 22.0322 79.8823 23.3395 79.8823 24.9522V100.798C79.8823 102.411 81.2515 103.718 82.9405 103.718H142.942C144.631 103.718 146 102.411 146 100.798V24.9522C146 23.3395 144.631 22.0322 142.942 22.0322Z" fill="#231F20"/>
<path d="M83.9326 27.0371H141.95V98.7132H83.9326V27.0371Z" fill="white"/>
<path d="M141.95 98.9709H83.9328C83.8623 98.9694 83.7951 98.9416 83.7457 98.8934C83.6963 98.8452 83.6687 98.7805 83.6687 98.7131V27.037C83.6687 26.9701 83.6965 26.906 83.7461 26.8587C83.7956 26.8114 83.8628 26.7848 83.9328 26.7848H141.95C142.021 26.7848 142.089 26.8112 142.139 26.8583C142.19 26.9054 142.219 26.9696 142.22 27.037V98.7131C142.219 98.781 142.19 98.8458 142.139 98.8938C142.089 98.9418 142.021 98.9695 141.95 98.9709ZM84.2029 98.4609H141.68V27.2836H84.2029V98.4609Z" fill="#231F20"/>
<path d="M128.103 19.146H119.756C119.45 17.6339 118.602 16.2708 117.358 15.2905C116.114 14.3103 114.551 13.7742 112.938 13.7742C111.325 13.7742 109.763 14.3103 108.519 15.2905C107.275 16.2708 106.427 17.6339 106.121 19.146H97.8031C97.2733 19.146 96.7651 19.3466 96.3898 19.7038C96.0146 20.061 95.8031 20.5457 95.8015 21.0515V27.7153C95.8015 28.2222 96.0124 28.7083 96.3878 29.0667C96.7631 29.4251 97.2723 29.6265 97.8031 29.6265H128.127C128.65 29.6162 129.149 29.4103 129.515 29.053C129.882 28.6957 130.087 28.2155 130.087 27.7153V21.0515C130.086 20.5486 129.876 20.0664 129.505 19.7097C129.134 19.353 128.63 19.1504 128.103 19.146ZM112.941 20.0147C112.593 20.0147 112.253 19.9161 111.963 19.7314C111.673 19.5466 111.448 19.284 111.315 18.9768C111.181 18.6696 111.146 18.3315 111.214 18.0053C111.282 17.6792 111.45 17.3796 111.696 17.1445C111.942 16.9093 112.256 16.7492 112.598 16.6843C112.939 16.6194 113.294 16.6527 113.615 16.78C113.937 16.9072 114.212 17.1228 114.406 17.3993C114.599 17.6757 114.702 18.0008 114.702 18.3334C114.702 18.7793 114.517 19.2069 114.187 19.5223C113.856 19.8376 113.408 20.0147 112.941 20.0147Z" fill="#F6F2D4"/>
<path d="M106.285 50.0211H92.2737C92.2025 50.0197 92.1347 49.992 92.0844 49.944C92.0341 49.896 92.0052 49.8312 92.0037 49.7633V35.4662C92.0052 35.3983 92.0341 35.3335 92.0844 35.2855C92.1347 35.2374 92.2025 35.2098 92.2737 35.2084H106.285C106.357 35.2084 106.425 35.2355 106.476 35.2839C106.527 35.3322 106.555 35.3978 106.555 35.4662V49.7633C106.555 49.8317 106.527 49.8972 106.476 49.9456C106.425 49.9939 106.357 50.0211 106.285 50.0211ZM92.5202 49.4999H106.021V35.724H92.5202V49.4999Z" fill="#D1D3D4"/>
<path d="M109.572 38.9635C109.498 39.0804 109.414 39.1911 109.32 39.2942L100.263 47.9251C99.9515 48.2222 99.7108 48.2278 99.4056 47.9251C97.7034 46.255 96.007 44.5736 94.3165 42.8811C94.2527 42.8349 94.2014 42.7747 94.1671 42.7057C94.1328 42.6366 94.1163 42.5607 94.1192 42.4843C94.1221 42.4079 94.1442 42.3333 94.1836 42.2667C94.2231 42.2002 94.2787 42.1437 94.3458 42.102L95.6254 40.9811C95.6704 40.9253 95.7282 40.8801 95.7943 40.849C95.8605 40.8179 95.9332 40.8017 96.007 40.8017C96.0807 40.8017 96.1535 40.8179 96.2196 40.849C96.2858 40.8801 96.3436 40.9253 96.3885 40.9811L99.3997 43.9123C99.7167 44.2149 99.9515 44.2149 100.263 43.9123L107.306 37.2261C107.353 37.1602 107.415 37.1062 107.488 37.0689C107.561 37.0315 107.643 37.012 107.726 37.012C107.809 37.012 107.891 37.0315 107.964 37.0689C108.037 37.1062 108.1 37.1602 108.146 37.2261C108.539 37.6072 108.938 37.9883 109.32 38.347C109.408 38.4488 109.491 38.5555 109.566 38.6665L109.572 38.9635Z" fill="#22577E"/>
<path d="M134.666 40.628H114.544C114.478 40.6188 114.418 40.5874 114.375 40.5396C114.332 40.4918 114.308 40.4306 114.308 40.3674C114.308 40.3042 114.332 40.2431 114.375 40.1952C114.418 40.1474 114.478 40.116 114.544 40.1068H134.666C134.731 40.116 134.791 40.1474 134.834 40.1952C134.878 40.2431 134.901 40.3042 134.901 40.3674C134.901 40.4306 134.878 40.4918 134.834 40.5396C134.791 40.5874 134.731 40.6188 134.666 40.628Z" fill="#D1D3D4"/>
<path d="M129.312 45.1174H114.544C114.508 45.1182 114.472 45.112 114.439 45.0994C114.406 45.0867 114.376 45.0677 114.351 45.0436C114.326 45.0195 114.306 44.9908 114.292 44.9592C114.279 44.9275 114.273 44.8937 114.274 44.8596C114.274 44.7912 114.302 44.7257 114.353 44.6773C114.403 44.629 114.472 44.6018 114.544 44.6018H129.312C129.383 44.6032 129.451 44.6309 129.501 44.6789C129.552 44.7269 129.581 44.7917 129.582 44.8596C129.582 44.928 129.554 44.9936 129.503 45.0419C129.452 45.0903 129.384 45.1174 129.312 45.1174Z" fill="#D1D3D4"/>
<path d="M106.285 69.5418H92.2737C92.2025 69.5404 92.1347 69.5127 92.0844 69.4647C92.0341 69.4167 92.0052 69.3519 92.0037 69.284V54.9925C92.0037 54.9241 92.0321 54.8585 92.0827 54.8102C92.1334 54.7618 92.2021 54.7347 92.2737 54.7347H106.285C106.321 54.7339 106.356 54.7401 106.389 54.7527C106.422 54.7654 106.452 54.7844 106.478 54.8085C106.503 54.8326 106.523 54.8613 106.536 54.8929C106.549 54.9246 106.556 54.9584 106.555 54.9925V69.284C106.555 69.3524 106.527 69.4179 106.476 69.4663C106.425 69.5146 106.357 69.5418 106.285 69.5418ZM92.5202 69.0262H106.021V55.2503H92.5202V69.0262Z" fill="#D1D3D4"/>
<path d="M109.572 58.4843C109.498 58.603 109.414 58.7155 109.32 58.8205L100.263 67.4515C100.217 67.521 100.154 67.5783 100.079 67.6181C100.004 67.6578 99.9199 67.6787 99.8341 67.6787C99.7484 67.6787 99.664 67.6578 99.589 67.6181C99.5141 67.5783 99.4509 67.521 99.4056 67.4515C97.7034 65.7776 96.007 64.0962 94.3165 62.4074C94.2527 62.3612 94.2014 62.3011 94.1671 62.232C94.1328 62.163 94.1163 62.087 94.1192 62.0106C94.1221 61.9342 94.1442 61.8596 94.1836 61.7931C94.2231 61.7266 94.2787 61.6701 94.3458 61.6284L95.6254 60.5075C95.6711 60.4526 95.7291 60.4083 95.7951 60.3779C95.8612 60.3474 95.9336 60.3316 96.007 60.3316C96.0803 60.3316 96.1528 60.3474 96.2188 60.3779C96.2849 60.4083 96.3429 60.4526 96.3885 60.5075L99.3997 63.4387C99.7167 63.7413 99.9515 63.7469 100.263 63.4387L107.306 56.7525C107.352 56.6854 107.414 56.6302 107.487 56.5919C107.56 56.5537 107.643 56.5337 107.726 56.5337C107.81 56.5337 107.892 56.5537 107.965 56.5919C108.038 56.6302 108.101 56.6854 108.146 56.7525C108.539 57.1336 108.938 57.5091 109.32 57.8734C109.408 57.9751 109.491 58.0818 109.566 58.1928L109.572 58.4843Z" fill="#22577E"/>
<path d="M134.665 60.1487H114.543C114.472 60.1487 114.403 60.1215 114.353 60.0732C114.302 60.0248 114.273 59.9592 114.273 59.8909C114.273 59.8225 114.302 59.7569 114.353 59.7086C114.403 59.6602 114.472 59.6331 114.543 59.6331H134.665C134.737 59.6331 134.805 59.6602 134.856 59.7086C134.907 59.7569 134.935 59.8225 134.935 59.8909C134.935 59.9592 134.907 60.0248 134.856 60.0732C134.805 60.1215 134.737 60.1487 134.665 60.1487Z" fill="#D1D3D4"/>
<path d="M129.312 64.6434H114.544C114.472 64.6434 114.403 64.6162 114.353 64.5679C114.302 64.5195 114.274 64.4539 114.274 64.3856C114.273 64.3515 114.279 64.3176 114.292 64.286C114.306 64.2544 114.326 64.2256 114.351 64.2016C114.376 64.1775 114.406 64.1585 114.439 64.1458C114.472 64.1331 114.508 64.127 114.544 64.1277H129.312C129.384 64.1277 129.452 64.1549 129.503 64.2033C129.554 64.2516 129.582 64.3172 129.582 64.3856C129.581 64.4535 129.552 64.5182 129.501 64.5663C129.451 64.6143 129.383 64.6419 129.312 64.6434Z" fill="#D1D3D4"/>
<path d="M106.285 89.0681H92.2737C92.2025 89.0666 92.1347 89.039 92.0844 88.991C92.0341 88.9429 92.0052 88.8782 92.0037 88.8103V74.4963C92.0052 74.4284 92.0341 74.3637 92.0844 74.3156C92.1347 74.2676 92.2025 74.24 92.2737 74.2385H106.285C106.357 74.2385 106.425 74.2657 106.476 74.314C106.527 74.3624 106.555 74.428 106.555 74.4963V88.7934C106.557 88.8287 106.552 88.864 106.54 88.8973C106.527 88.9305 106.508 88.961 106.482 88.9867C106.457 89.0125 106.426 89.033 106.393 89.047C106.359 89.061 106.322 89.0681 106.285 89.0681ZM92.5202 88.5525H106.021V74.771H92.5202V88.5525Z" fill="#D1D3D4"/>
<path d="M134.666 79.6747H114.544C114.478 79.6655 114.418 79.6341 114.375 79.5862C114.332 79.5384 114.308 79.4773 114.308 79.4141C114.308 79.3508 114.332 79.2897 114.375 79.2419C114.418 79.194 114.478 79.1626 114.544 79.1534H134.666C134.731 79.1626 134.791 79.194 134.834 79.2419C134.878 79.2897 134.901 79.3508 134.901 79.4141C134.901 79.4773 134.878 79.5384 134.834 79.5862C134.791 79.6341 134.731 79.6655 134.666 79.6747Z" fill="#D1D3D4"/>
<path d="M129.312 84.1641H114.544C114.508 84.1648 114.472 84.1587 114.439 84.146C114.406 84.1333 114.376 84.1143 114.351 84.0902C114.326 84.0662 114.306 84.0374 114.292 84.0058C114.279 83.9742 114.273 83.9403 114.274 83.9062C114.274 83.8379 114.302 83.7723 114.353 83.7239C114.403 83.6756 114.472 83.6484 114.544 83.6484H129.312C129.383 83.6499 129.451 83.6775 129.501 83.7255C129.552 83.7736 129.581 83.8383 129.582 83.9062C129.582 83.9746 129.554 84.0402 129.503 84.0885C129.452 84.1369 129.384 84.1641 129.312 84.1641Z" fill="#D1D3D4"/>
<path d="M33.4874 75.5497L24.4303 96.0622L44.599 79.4336L57.4363 83.5865C57.4363 83.5865 54.5718 101.857 37.0386 117.286C19.5055 132.716 1.40294 129.757 0.363985 115.314C-0.674974 100.871 9.9905 72.8651 9.9905 72.8651" fill="white"/>
<path d="M14.2636 127.885C12.1927 127.903 10.1369 127.546 8.20593 126.831C3.35745 124.987 0.46363 120.901 0.0703515 115.336C-0.956868 101 9.60294 73.0502 9.7086 72.7419C9.73584 72.6676 9.79289 72.6066 9.8672 72.5725C9.9415 72.5383 10.027 72.5337 10.1048 72.5598C10.1827 72.5858 10.2465 72.6402 10.2823 72.7112C10.318 72.7821 10.3228 72.8637 10.2956 72.9381C10.1899 73.2183 -0.322928 101.056 0.692551 115.269C1.06822 120.599 3.82704 124.505 8.44659 126.265C16.1654 129.196 27.0481 125.665 36.8507 117.046C53.022 102.816 56.6907 85.9461 57.1074 83.7548L44.6869 79.7307L24.6473 96.2528C24.595 96.2924 24.5306 96.3146 24.4639 96.3159C24.3972 96.3172 24.3319 96.2976 24.2779 96.2601C24.224 96.2225 24.1844 96.1692 24.1653 96.1082C24.1461 96.0472 24.1484 95.9818 24.1718 95.9222L33.2349 75.4321C33.2507 75.3953 33.2739 75.3618 33.3032 75.3336C33.3326 75.3054 33.3675 75.2829 33.4059 75.2676C33.4443 75.2522 33.4855 75.2442 33.5272 75.2441C33.5689 75.244 33.6101 75.2517 33.6487 75.2667C33.6872 75.2818 33.7223 75.304 33.7518 75.332C33.7814 75.3601 33.8049 75.3934 33.821 75.4301C33.837 75.4667 33.8454 75.5061 33.8455 75.5459C33.8457 75.5856 33.8376 75.6251 33.8218 75.6619L25.2754 95.0366L44.3875 79.2151C44.4279 79.1815 44.4768 79.1587 44.5293 79.1488C44.5819 79.139 44.6362 79.1425 44.6869 79.1591L57.5183 83.3176C57.5853 83.3391 57.6424 83.3822 57.6799 83.4394C57.7174 83.4966 57.7329 83.5645 57.7238 83.6315C57.6944 83.8164 54.6421 102.182 37.2322 117.5C29.6132 124.214 21.3015 127.885 14.2636 127.885Z" fill="#231F20"/>
<path d="M49.758 49.5225L72.6855 66.9189L73.3077 67.9501L76.3541 73.011L70.5019 71.324L69.3045 70.9765L46.377 53.5857L49.758 49.5225Z" fill="#231F20"/>
<path d="M76.3546 73.291H76.2665L69.2227 71.2566C69.1867 71.2454 69.1529 71.2283 69.123 71.2062L46.1954 53.8322C46.136 53.7839 46.0982 53.7157 46.0898 53.6416C46.0846 53.6059 46.0871 53.5696 46.0972 53.5349C46.1073 53.5002 46.1248 53.4679 46.1485 53.4399L49.5295 49.3766C49.5788 49.3201 49.649 49.2839 49.7255 49.2755C49.802 49.2672 49.879 49.2873 49.9404 49.3317L72.8679 66.7057C72.8973 66.7264 72.9214 66.7533 72.9383 66.7842L76.607 72.8763C76.6398 72.9226 76.6573 72.9773 76.6573 73.0332C76.6573 73.0892 76.6398 73.1438 76.607 73.1902C76.577 73.2257 76.5382 73.2535 76.4941 73.2711C76.4501 73.2887 76.4021 73.2956 76.3546 73.291ZM69.4458 70.7242L75.7324 72.54L72.4629 67.1037L49.8054 49.9146L46.7883 53.5407L69.4458 70.7242Z" fill="#231F20"/>
<path d="M73.3085 67.9502L76.3549 73.0111L70.5027 71.3241L73.3085 67.9502Z" fill="#68E1FD"/>
<path d="M76.3548 73.3023C76.3257 73.3076 76.2958 73.3076 76.2668 73.3023L70.3969 71.6209C70.3501 71.6068 70.3074 71.5822 70.2727 71.549C70.238 71.5158 70.2121 71.4751 70.1974 71.4304C70.1831 71.3851 70.1798 71.3373 70.188 71.2906C70.1961 71.244 70.2154 71.1997 70.2443 71.1613L73.0501 67.7986C73.0809 67.7608 73.1214 67.7311 73.1676 67.7125C73.2139 67.6939 73.2643 67.6868 73.3142 67.6921C73.3631 67.6958 73.4103 67.7103 73.4521 67.7347C73.494 67.759 73.5292 67.7925 73.5549 67.8323L76.5955 72.8763C76.63 72.9241 76.6486 72.9808 76.6486 73.0388C76.6486 73.0969 76.63 73.1536 76.5955 73.2014C76.566 73.2346 76.5291 73.2609 76.4874 73.2784C76.4456 73.2959 76.4003 73.304 76.3548 73.3023ZM71.0191 71.1669L75.715 72.5232L73.2732 68.4656L71.0191 71.1669Z" fill="#231F20"/>
<path d="M75.4516 72.3454L75.448 72.3498C75.3512 72.4661 75.3715 72.6354 75.4933 72.7278L76.417 73.4286C76.5389 73.521 76.7161 73.5016 76.8129 73.3853L76.8166 73.3809C76.9134 73.2646 76.8931 73.0954 76.7712 73.003L75.8475 72.3021C75.7257 72.2097 75.5484 72.2291 75.4516 72.3454Z" fill="white"/>
<path d="M76.5954 73.779C76.463 73.7782 76.3347 73.7348 76.2315 73.6557L75.3099 72.9551C75.1896 72.8637 75.1116 72.7309 75.0927 72.5852C75.0836 72.5117 75.0898 72.4373 75.1109 72.3661C75.1321 72.2949 75.1678 72.2284 75.216 72.1705C75.3128 72.055 75.4536 71.9808 75.6075 71.964C75.7615 71.9472 75.9161 71.9892 76.0378 72.0808L76.9593 72.7814C77.0196 72.8273 77.0698 72.8841 77.107 72.9485C77.1443 73.0129 77.1679 73.0837 77.1765 73.1569C77.1873 73.2295 77.1819 73.3035 77.1606 73.374C77.1394 73.4445 77.1028 73.5099 77.0532 73.566C76.9986 73.632 76.929 73.6855 76.8498 73.7224C76.7705 73.7592 76.6836 73.7786 76.5954 73.779Z" fill="#231F20"/>
<path d="M41.1717 48.7469L43.6511 45.7674C43.8739 45.4998 44.1989 45.3276 44.5546 45.2887C44.9103 45.2498 45.2677 45.3475 45.548 45.5601L56.4398 53.8234L52.2806 58.8212L41.3888 50.558C41.1085 50.3453 40.9281 50.035 40.8874 49.6954C40.8467 49.3557 40.9489 49.0145 41.1717 48.7469Z" fill="#231F20"/>
<path d="M52.282 59.1005C52.2165 59.1017 52.1525 59.082 52.1001 59.0445L41.2057 50.7778C41.0364 50.6501 40.8952 50.4916 40.7903 50.3116C40.6853 50.1316 40.6187 49.9336 40.5941 49.7289C40.5696 49.5243 40.5876 49.317 40.6473 49.119C40.7069 48.921 40.8069 48.7362 40.9415 48.5752L43.4186 45.5992C43.6897 45.2741 44.0849 45.0649 44.5174 45.0176C44.9499 44.9704 45.3843 45.0888 45.7254 45.347L56.6198 53.6081C56.6803 53.6543 56.7192 53.7215 56.728 53.795C56.7368 53.8685 56.7148 53.9423 56.6668 54.0004L52.511 58.9996C52.4874 59.028 52.4582 59.0516 52.4249 59.0689C52.3916 59.0863 52.355 59.097 52.3172 59.1005H52.282ZM44.71 45.56H44.5867C44.4486 45.5738 44.3147 45.6136 44.1928 45.6771C44.0709 45.7406 43.9634 45.8265 43.8764 45.9299L41.3994 48.9115C41.313 49.0153 41.2489 49.1343 41.2107 49.2617C41.1725 49.3891 41.1609 49.5225 41.1768 49.6542C41.1926 49.7858 41.2354 49.9133 41.3028 50.0291C41.3702 50.145 41.4609 50.247 41.5696 50.3294L52.2351 58.4224L56.027 53.8603L45.3674 45.773C45.1794 45.6337 44.9479 45.5587 44.71 45.56Z" fill="#231F20"/>
<path d="M48.0856 57.8901C48.0174 57.891 47.951 57.8692 47.8978 57.8285C47.6689 57.6547 42.2158 53.569 41.4997 52.9245C40.6721 52.1791 41.0771 50.5594 41.0947 50.4922C41.1134 50.4178 41.1622 50.3537 41.2305 50.3137C41.2987 50.2738 41.3808 50.2614 41.4586 50.2792C41.5365 50.297 41.6037 50.3437 41.6455 50.4088C41.6873 50.474 41.7003 50.5524 41.6817 50.6267C41.5878 51.0022 41.441 52.0782 41.9165 52.5042C42.6091 53.1263 48.2148 57.3353 48.2735 57.3745C48.3356 57.4219 48.3759 57.4906 48.3858 57.566C48.3957 57.6414 48.3743 57.7175 48.3263 57.778C48.2972 57.8124 48.2606 57.8402 48.219 57.8595C48.1774 57.8789 48.1319 57.8893 48.0856 57.8901Z" fill="#231F20"/>
<path d="M43.108 51.9995C43.037 52.0002 42.9682 51.9763 42.9143 51.9323C42.8837 51.9084 42.8584 51.8791 42.8398 51.8458C42.8212 51.8126 42.8097 51.7762 42.8058 51.7387C42.802 51.7012 42.806 51.6633 42.8176 51.6273C42.8291 51.5913 42.848 51.5578 42.8732 51.5288L47.0408 46.7201C47.0923 46.6608 47.1663 46.6234 47.2466 46.6161C47.3268 46.6087 47.4069 46.632 47.4693 46.6809C47.5003 46.7052 47.5258 46.7352 47.5444 46.7691C47.563 46.803 47.5743 46.8401 47.5776 46.8783C47.5809 46.9165 47.5761 46.9549 47.5636 46.9912C47.551 47.0276 47.5309 47.0612 47.5045 47.09L43.3369 51.8931C43.3099 51.9264 43.2752 51.9533 43.2355 51.9718C43.1958 51.9903 43.1522 51.9998 43.108 51.9995Z" fill="white"/>
<path d="M56.861 84.9095C57.4479 83.9791 57.9175 81.5468 57.9175 81.5468C57.9175 81.5468 62.948 81.9335 64.0045 80.4595C65.0611 78.9855 68.2249 68.5219 67.1684 66.7397C66.1118 64.9574 62.0558 62.4802 60.8407 62.0151C59.6257 61.5499 54.6656 62.4802 54.6656 62.4802L58.5632 58.7588C58.5632 58.7588 64.8968 62.3233 67.7377 62.0879C70.5787 61.8525 71.3946 60.8493 69.9331 59.224C68.4715 57.5987 57.8354 53.0198 56.0509 53.2552C54.2665 53.4906 46.3892 60.5411 46.2248 61.5499C46.0605 62.5587 39.9794 82.1577 41.2766 84.3266" fill="white"/>
<path d="M56.8611 85.1952C56.8082 85.1919 56.7573 85.1744 56.7144 85.1448C56.6799 85.1261 56.6496 85.1012 56.6254 85.0713C56.6011 85.0415 56.5832 85.0073 56.5728 84.9708C56.5625 84.9343 56.5598 84.8963 56.5649 84.8588C56.5701 84.8213 56.583 84.7851 56.6028 84.7524C57.07 83.7109 57.4126 82.6223 57.6242 81.5074C57.6396 81.4382 57.6809 81.3768 57.7403 81.3345C57.7997 81.2922 57.8732 81.272 57.947 81.2776C59.2971 81.3785 62.9775 81.4065 63.7582 80.3137C64.7678 78.9125 67.867 68.5106 66.9161 66.9021C65.8889 65.1759 61.8446 62.7211 60.7293 62.3008C59.8019 61.9421 56.0863 62.5249 54.7304 62.7771C54.6673 62.7901 54.6014 62.7829 54.5431 62.7566C54.4847 62.7302 54.4371 62.6862 54.4075 62.6314C54.377 62.5765 54.3656 62.5137 54.3751 62.4522C54.3847 62.3907 54.4145 62.3337 54.4604 62.2896L58.3579 58.5682C58.4062 58.5236 58.4683 58.4951 58.535 58.487C58.6017 58.4789 58.6693 58.4917 58.7277 58.5233C58.7864 58.557 64.9967 62.0318 67.7203 61.8188C69.1701 61.7011 70.0682 61.3648 70.2971 60.8772C70.5261 60.3896 70.08 59.846 69.7102 59.4257C68.3366 57.89 57.7944 53.3504 56.098 53.5577C54.5073 53.7595 46.7357 60.6474 46.5244 61.6058C46.4891 61.8132 46.2661 62.609 45.7965 64.2511C44.3643 69.2616 40.5665 82.5667 41.5409 84.192C41.5813 84.2589 41.5923 84.3384 41.5714 84.413C41.5505 84.4876 41.4994 84.5512 41.4294 84.5899C41.3589 84.627 41.2762 84.6367 41.1985 84.6168C41.1208 84.597 41.0542 84.5492 41.0126 84.4834C40.0499 82.8693 42.4624 73.734 45.2095 64.0998C45.5911 62.7603 45.8963 61.7011 45.9256 61.5161C46.1193 60.328 54.1434 53.2215 56.01 52.9805C57.8766 52.7395 68.6184 57.324 70.1621 59.0445C70.8665 59.8292 71.0954 60.5185 70.8548 61.0902C70.5437 61.8132 69.5047 62.2447 67.7672 62.3904C65.1141 62.6146 59.7432 59.7507 58.6162 59.1286L55.5698 62.0374C57.1135 61.7852 59.9897 61.3872 60.9524 61.7571C62.1263 62.2111 66.3291 64.7443 67.4092 66.6106C68.4892 68.4769 65.3313 79.1031 64.2336 80.6219C63.2181 82.0342 59.2854 81.9166 58.1349 81.8493C57.9272 82.9436 57.5782 84.0091 57.0959 85.0215C57.076 85.0674 57.0439 85.1076 57.0027 85.1381C56.9615 85.1686 56.9127 85.1882 56.8611 85.1952Z" fill="#231F20"/>
<path d="M53.0454 67.1541C53.0454 67.1541 59.7018 66.0724 61.1634 66.4591C62.625 66.8458 66.8454 71.1893 66.8454 71.1893" fill="white"/>
<path d="M66.8454 71.4754C66.8037 71.4761 66.7624 71.4685 66.724 71.453C66.6855 71.4376 66.6509 71.4147 66.6223 71.3857C65.4484 70.192 62.2141 67.0366 61.0812 66.7396C59.9483 66.4425 54.9296 67.1431 53.0924 67.4402C53.0139 67.4516 52.9339 67.4334 52.8693 67.3895C52.8046 67.3455 52.7604 67.2793 52.7461 67.2048C52.7385 67.1675 52.739 67.1292 52.7474 67.0921C52.7558 67.055 52.7721 67.0199 52.7951 66.989C52.8182 66.9581 52.8476 66.9319 52.8815 66.9122C52.9155 66.8924 52.9533 66.8795 52.9926 66.8741C53.2685 66.8293 59.737 65.7532 61.2456 66.1791C62.7541 66.6051 66.6282 70.5394 67.0684 70.9934C67.1244 71.047 67.1558 71.1195 67.1558 71.1952C67.1558 71.2708 67.1244 71.3434 67.0684 71.3969C67.0397 71.4251 67.0048 71.4467 66.9662 71.4603C66.9276 71.4739 66.8863 71.479 66.8454 71.4754Z" fill="#231F20"/>
<path d="M57.9172 81.5747C57.9172 81.5747 59.0501 78.3185 58.8095 76.1495L57.9172 81.5747Z" fill="white"/>
<path d="M57.9172 81.8658C57.8693 81.8654 57.8222 81.8542 57.7796 81.8332C57.7371 81.8122 57.7003 81.7819 57.6723 81.7448C57.6443 81.7077 57.6259 81.6648 57.6184 81.6196C57.611 81.5745 57.6148 81.5282 57.6296 81.4847C57.6296 81.4511 58.739 78.2621 58.5042 76.1773C58.5001 76.1397 58.5039 76.1017 58.5153 76.0656C58.5267 76.0294 58.5455 75.9958 58.5706 75.9666C58.5957 75.9374 58.6266 75.9132 58.6616 75.8955C58.6965 75.8778 58.7348 75.8669 58.7742 75.8634C58.8135 75.8587 58.8535 75.8615 58.8917 75.8717C58.9299 75.8819 58.9656 75.8992 58.9967 75.9227C59.0278 75.9462 59.0538 75.9753 59.073 76.0084C59.0922 76.0415 59.1044 76.078 59.1088 76.1156C59.3553 78.3238 58.2518 81.5296 58.2048 81.6641C58.1843 81.7218 58.1458 81.7722 58.0943 81.8082C58.0429 81.8443 57.981 81.8644 57.9172 81.8658Z" fill="#231F20"/>
<path d="M54.2607 76.3059C54.5895 76.2297 60.1893 76.3767 60.5121 76.3059H54.2607Z" fill="white"/>
<path d="M59.714 76.6147C59.2209 76.6147 58.4813 76.6147 57.3661 76.6147C56.0923 76.6147 54.5016 76.5754 54.3079 76.6147C54.2304 76.6266 54.151 76.6102 54.0857 76.5686C54.0204 76.527 53.974 76.4634 53.9557 76.3905C53.9381 76.3184 53.951 76.2426 53.9917 76.1796C54.0324 76.1166 54.0975 76.0715 54.1729 76.0542C55.2384 75.9972 56.3064 75.9972 57.3719 76.0542C58.6516 76.0542 60.2364 76.0935 60.4301 76.0542C60.5078 76.0409 60.5879 76.0568 60.6535 76.0986C60.7192 76.1403 60.7653 76.2048 60.7823 76.2784C60.8003 76.3504 60.7884 76.4263 60.749 76.4901C60.7095 76.5538 60.6457 76.6005 60.571 76.6203C60.2855 76.6359 59.9992 76.634 59.714 76.6147Z" fill="#231F20"/>
<path d="M52.0181 71.4193C52.0181 71.4193 56.8078 70.4105 59.0619 70.8589C61.3159 71.3072 65.3954 75.9758 65.8004 76.3625" fill="white"/>
<path d="M65.7887 76.6705C65.7094 76.6703 65.6334 76.6401 65.5774 76.5864C65.5187 76.5304 65.3954 76.4015 65.2193 76.2109C64.1451 75.0564 60.8639 71.5424 58.9856 71.1669C56.8078 70.7185 52.1002 71.6993 52.0533 71.7273C51.9747 71.7423 51.8932 71.7272 51.8262 71.6852C51.7592 71.6433 51.7122 71.5779 51.6952 71.5031C51.6858 71.4663 51.6842 71.428 51.6907 71.3905C51.6972 71.3531 51.7116 71.3173 51.733 71.2854C51.7544 71.2534 51.7824 71.2259 51.8152 71.2046C51.8481 71.1832 51.8851 71.1685 51.9242 71.1613C52.1237 71.1164 56.802 70.1468 59.1147 70.6008C60.9696 70.9819 63.746 73.7674 65.6713 75.8298C65.8356 76.0092 65.953 76.1325 66.0059 76.1829C66.0621 76.2374 66.0937 76.3109 66.0937 76.3875C66.0937 76.464 66.0621 76.5375 66.0059 76.592C65.9468 76.644 65.869 76.6721 65.7887 76.6705Z" fill="#231F20"/>
<path d="M133.233 103.499C133.37 102.608 133.458 101.71 133.497 100.809C133.56 98.9428 133.256 97.0816 132.599 95.3225C132.399 94.5382 131.947 93.8329 131.308 93.3049C130.632 92.8285 129.547 92.8117 129.054 93.4618C128.56 94.1119 128.807 94.8237 128.971 95.5131C129.407 97.3796 129.504 99.3037 129.259 101.202C128.948 98.6516 128.596 96.0006 127.134 93.8429C126.83 93.3392 126.398 92.917 125.878 92.6155C125.614 92.4708 125.314 92.3975 125.01 92.4034C124.706 92.4093 124.409 92.4943 124.152 92.6491C123.407 93.1704 123.465 94.224 123.565 95.1039C123.803 97.3533 123.768 99.6214 123.46 101.863C123.626 99.893 123.475 97.9103 123.013 95.9838C122.708 94.7228 122.11 93.3273 120.824 92.9294C120.546 92.833 120.245 92.8136 119.955 92.8733C119.665 92.9678 119.406 93.1352 119.207 93.3581C119.007 93.581 118.875 93.8511 118.822 94.1399C118.726 94.7154 118.726 95.3019 118.822 95.8773C119.064 98.1408 118.991 100.425 118.605 102.67C118.907 100.702 118.827 98.6979 118.37 96.7573C118.25 95.9782 117.927 95.2403 117.431 94.6107C117.175 94.3032 116.825 94.0788 116.43 93.9685C116.035 93.8581 115.614 93.8671 115.224 93.9942C114.945 94.1386 114.703 94.3418 114.518 94.5885C114.333 94.8351 114.209 95.1187 114.156 95.4178C114.058 96.0184 114.036 96.6281 114.091 97.2336C114.146 99.5244 113.702 101.801 112.788 103.92C112.025 105.685 111.027 107.636 111.221 109.608C111.415 111.581 113.099 113.397 115.107 114.165C117.161 114.843 119.376 114.942 121.487 114.451C128.449 113.134 134.195 109.967 136.661 103.612" fill="white"/>
<path d="M118.576 115.034C117.354 115.051 116.139 114.847 114.996 114.434C112.742 113.571 111.104 111.632 110.928 109.631C110.764 107.798 111.562 105.977 112.266 104.379L112.513 103.819C113.411 101.736 113.847 99.4972 113.792 97.2449V96.9647C113.747 96.4292 113.775 95.8904 113.875 95.3618C113.934 95.0175 114.077 94.6913 114.292 94.4092C114.507 94.127 114.789 93.8967 115.113 93.7365C115.563 93.5909 116.048 93.5788 116.505 93.7019C116.962 93.825 117.369 94.0774 117.672 94.4258C118.109 94.9483 118.412 95.5603 118.559 96.2137C118.559 96.1128 118.559 96.0119 118.529 95.9166V95.7765C118.431 95.22 118.431 94.6517 118.529 94.0952C118.592 93.754 118.751 93.4356 118.989 93.174C119.227 92.9124 119.535 92.7175 119.879 92.61C120.225 92.5364 120.585 92.5577 120.918 92.6716C122.092 93.0303 122.873 94.1288 123.307 95.9334C123.307 95.9951 123.337 96.0624 123.354 96.124C123.331 95.7989 123.302 95.4739 123.266 95.1488C123.161 94.1512 123.125 93.0303 123.988 92.4306C124.29 92.2419 124.641 92.1372 125.002 92.1283C125.363 92.1194 125.719 92.2066 126.031 92.3802C126.598 92.7043 127.07 93.1591 127.405 93.7029C128.204 94.9533 128.759 96.3319 129.042 97.7717C128.973 97.0402 128.853 96.3138 128.684 95.5972C128.514 94.8686 128.309 93.9831 128.819 93.3105C128.946 93.148 129.105 93.0113 129.287 92.9083C129.47 92.8053 129.672 92.7382 129.882 92.7109C130.452 92.6296 131.034 92.7643 131.502 93.0864C132.19 93.6526 132.678 94.4082 132.899 95.2497C133.577 97.0448 133.887 98.9473 133.814 100.854C133.814 101.129 133.773 101.375 133.762 101.605C133.728 102.264 133.656 102.921 133.544 103.572C133.546 103.616 133.538 103.659 133.519 103.699C133.501 103.739 133.474 103.775 133.439 103.803C133.405 103.832 133.364 103.853 133.32 103.864C133.276 103.876 133.23 103.878 133.185 103.87C133.14 103.862 133.098 103.845 133.061 103.82C133.024 103.794 132.993 103.761 132.972 103.723C132.95 103.685 132.937 103.642 132.935 103.599C132.932 103.555 132.94 103.512 132.957 103.472C133.066 102.841 133.137 102.205 133.169 101.566C133.169 101.336 133.198 101.09 133.222 100.809C133.292 98.9818 132.991 97.1586 132.335 95.4402C132.154 94.7132 131.744 94.0563 131.161 93.5571C130.821 93.3259 130.4 93.2294 129.987 93.2881C129.857 93.303 129.731 93.3429 129.617 93.4055C129.503 93.4681 129.403 93.5521 129.324 93.6524C128.972 94.1176 129.136 94.8294 129.283 95.4571C129.734 97.3614 129.835 99.3259 129.582 101.263C129.572 101.333 129.537 101.396 129.482 101.443C129.427 101.489 129.356 101.515 129.283 101.516C129.209 101.515 129.137 101.488 129.082 101.441C129.027 101.393 128.992 101.328 128.984 101.258C128.69 98.8702 128.356 96.1632 126.906 94.0167C126.62 93.5539 126.216 93.1682 125.732 92.8958C125.52 92.7759 125.279 92.7127 125.033 92.7127C124.787 92.7127 124.546 92.7759 124.335 92.8958C123.748 93.3217 123.748 94.2521 123.859 95.0928C124.095 97.3648 124.058 99.6552 123.748 101.919C123.735 101.993 123.693 102.059 123.631 102.105C123.569 102.151 123.491 102.172 123.413 102.166C123.335 102.159 123.262 102.122 123.212 102.064C123.161 102.007 123.137 101.932 123.143 101.857C123.311 99.9156 123.163 97.9606 122.703 96.0624C122.321 94.4707 121.652 93.5123 120.719 93.2209C120.494 93.1419 120.25 93.1244 120.014 93.1704C119.781 93.2539 119.574 93.3947 119.415 93.5787C119.257 93.7627 119.151 93.9833 119.111 94.2185C119.025 94.7177 119.025 95.2268 119.111 95.7261V95.8662C119.355 98.1557 119.282 100.466 118.893 102.737C118.879 102.812 118.835 102.878 118.77 102.922C118.706 102.966 118.625 102.984 118.547 102.973C118.508 102.967 118.47 102.954 118.435 102.935C118.401 102.915 118.371 102.889 118.348 102.858C118.324 102.827 118.308 102.792 118.298 102.755C118.289 102.718 118.288 102.68 118.295 102.642C118.59 100.708 118.513 98.7379 118.066 96.8302C117.952 96.101 117.651 95.41 117.191 94.8181C116.981 94.5542 116.691 94.3586 116.36 94.2583C116.029 94.158 115.673 94.1578 115.342 94.2577C115.105 94.381 114.9 94.5549 114.744 94.7658C114.589 94.9767 114.486 95.2189 114.444 95.4739C114.358 95.9569 114.334 96.4481 114.374 96.9367V97.2169C114.44 99.5509 113.994 101.872 113.065 104.032L112.818 104.592C112.108 106.212 111.368 107.882 111.521 109.575C111.685 111.374 113.17 113.111 115.219 113.89C116.903 114.535 118.993 114.624 121.429 114.165C129.177 112.697 134.208 109.121 136.38 103.516C136.407 103.442 136.464 103.381 136.538 103.347C136.612 103.313 136.698 103.308 136.776 103.334C136.854 103.36 136.917 103.415 136.953 103.486C136.989 103.557 136.994 103.638 136.967 103.713C134.713 109.524 129.529 113.24 121.564 114.742C120.581 114.934 119.58 115.031 118.576 115.034Z" fill="#231F20"/>
<path d="M24.4299 96.0624L14.5803 103.281L24.4299 96.0624Z" fill="white"/>
<path d="M14.5805 103.572C14.534 103.573 14.488 103.563 14.4463 103.543C14.4045 103.524 14.368 103.495 14.3398 103.46C14.3151 103.43 14.2969 103.396 14.2862 103.359C14.2755 103.322 14.2725 103.283 14.2774 103.245C14.2823 103.207 14.295 103.171 14.3148 103.137C14.3346 103.104 14.361 103.075 14.3926 103.051L24.2481 95.8325C24.2792 95.8091 24.3149 95.7918 24.353 95.7817C24.3912 95.7716 24.4311 95.7688 24.4704 95.7734C24.5097 95.7781 24.5477 95.7902 24.582 95.809C24.6164 95.8278 24.6466 95.853 24.6707 95.883C24.6954 95.9131 24.7136 95.9476 24.7243 95.9845C24.735 96.0214 24.7379 96.06 24.733 96.098C24.7281 96.136 24.7154 96.1727 24.6957 96.206C24.6759 96.2393 24.6495 96.2685 24.6179 96.2921L14.7624 103.511C14.7106 103.55 14.6466 103.572 14.5805 103.572Z" fill="#231F20"/>
<path d="M41.705 24.7897C41.6374 24.7903 41.5716 24.769 41.5184 24.7293C41.4651 24.6896 41.4274 24.6339 41.4115 24.5712C40.5134 20.9787 39.6506 17.3526 38.8405 13.7825L38.7584 13.4126C38.3236 11.8455 38.1065 10.2306 38.1127 8.60952C38.2242 6.8553 39.5743 6.77684 40.7776 6.81607C40.8597 5.9874 41.1289 5.18556 41.5666 4.46574C42.0044 3.74591 42.6003 3.1252 43.3133 2.64632C46.9174 0.270002 50.7739 1.34607 54.5012 2.38851C56.9665 3.07786 59.5199 3.78964 61.9207 3.44776C63.5131 3.1336 65.0455 2.5873 66.4639 1.82806C66.9805 1.58146 67.497 1.34046 68.0194 1.11628C68.5418 0.892103 73.9186 -1.32728 75.2276 1.19475C75.5915 1.90092 75.2921 2.68555 74.9517 3.35809C74.2782 4.67268 73.4929 5.93232 72.6038 7.12432C73.2439 6.72254 73.9266 6.38628 74.6406 6.12111C75.9737 5.57258 77.4771 5.53645 78.8375 6.02023C79.3934 6.22516 79.8678 6.5918 80.1934 7.06827C80.8274 8.06588 80.5515 9.38854 79.3658 10.9914C78.3214 12.408 77.1739 13.7526 75.9319 15.0155C76.2783 14.8417 76.6246 14.6344 76.9592 14.455C78.0803 13.7825 79.2425 13.0875 80.5691 13.4182C80.8063 13.4685 81.0295 13.5664 81.2238 13.7056C81.4182 13.8448 81.5792 14.0219 81.6961 14.2252C82.1187 15.0771 81.3733 16.0075 81.1091 16.3157C78.9785 18.9676 76.2889 21.1633 73.2142 22.7609C73.1433 22.7968 73.0604 22.8046 72.9835 22.7826C72.9066 22.7606 72.8418 22.7105 72.8033 22.6432C72.7657 22.5755 72.7575 22.4963 72.7806 22.4229C72.8037 22.3495 72.8561 22.2877 72.9266 22.2509C75.9267 20.6931 78.5505 18.5508 80.6278 15.9626C81.1385 15.3181 81.3028 14.8417 81.1209 14.4718C81.0431 14.3451 80.9379 14.2356 80.8125 14.1505C80.687 14.0655 80.544 14.0069 80.393 13.9786C79.3188 13.7096 78.321 14.3093 77.2585 14.9426C76.5113 15.4539 75.6744 15.8335 74.7873 16.0635C74.7234 16.0769 74.6566 16.0699 74.5973 16.0435C74.5379 16.0172 74.4892 15.9731 74.4586 15.9178C74.4288 15.8623 74.4184 15.7992 74.429 15.7376C74.4396 15.6761 74.4705 15.6194 74.5173 15.5759C76.1081 14.0688 77.5576 12.4317 78.8493 10.6832C79.8823 9.27645 80.1524 8.17236 79.6534 7.38773C79.388 7.01856 79.0114 6.73514 78.5734 6.57508C77.3567 6.15231 76.0166 6.19041 74.8284 6.68156C73.6056 7.18797 72.4556 7.84152 71.4063 8.62633C71.3479 8.67383 71.2727 8.69812 71.1961 8.69419C71.1195 8.69026 71.0474 8.6584 70.9947 8.60519C70.942 8.55199 70.9127 8.48149 70.9128 8.40825C70.9129 8.33501 70.9425 8.26462 70.9954 8.2116C72.3223 6.64418 73.4567 4.93674 74.3764 3.1227C74.6523 2.56225 74.9047 1.95136 74.6523 1.44135C73.7953 -0.211984 70.0856 0.847267 68.2425 1.6375C67.7259 1.86168 67.2153 2.09707 66.7046 2.33807C65.2401 3.1276 63.6559 3.69483 62.0087 4.01942C59.473 4.37811 56.855 3.64952 54.3251 2.94336C50.5626 1.89531 47.0172 0.903313 43.6538 3.1227C42.9768 3.57871 42.4176 4.17616 42.0189 4.86959C41.6202 5.56302 41.3924 6.33416 41.3528 7.12432C41.353 7.16238 41.3447 7.20005 41.3285 7.23483C41.3124 7.26961 41.2886 7.30071 41.2589 7.32608C41.1986 7.37615 41.1216 7.40399 41.0417 7.40455C39.4745 7.3429 38.7877 7.43817 38.6938 8.64314C38.6937 10.2112 38.9048 11.7727 39.3219 13.2893L39.4099 13.6648C40.2141 17.2236 41.0769 20.8498 41.975 24.4367C41.9846 24.4735 41.9864 24.5117 41.9804 24.5492C41.9743 24.5867 41.9605 24.6227 41.9397 24.655C41.919 24.6874 41.8917 24.7154 41.8595 24.7376C41.8272 24.7598 41.7907 24.7756 41.752 24.7841L41.705 24.7897Z" fill="#231F20"/>
</svg>
